<svg width="700" height="185" viewBox="0 0 700 185" fill="none" xmlns="http://www.w3.org/2000/svg">
<rect x="546.5" y="131.5" width="78" height="53" rx="9.5" fill="#447487" stroke="#BBDCEF"/>
<path d="M571.78 146.139L574.017 164.087H574.216L582.419 146.139H590.225L577.597 171.594H568.151L563.975 146.139H571.78ZM605.555 146.139L601.329 171.594H594.418L597.6 152.503H597.451L591.336 155.834L592.281 149.967L599.191 146.139H605.555Z" fill="white"/>
<rect x="64" y="131" width="467" height="54" rx="10" fill="#BBDCEF"/>
<path d="M18.1754 51.08C18.1754 39.04 18.1754 23.08 17.3354 13H44.0754C61.9954 13 72.6354 21.54 72.6354 35.68C72.6354 45.2 67.8754 52.62 60.0354 56.4C69.4154 65.78 74.8754 76.56 74.8754 87.06C74.8754 101.9 63.9554 111 45.4754 111H17.3354C18.1754 100.92 18.1754 84.96 18.1754 72.92V51.08ZM32.1754 98.4H46.8754C55.2754 98.4 60.3154 93.5 60.3154 85.8C60.3154 77.68 54.7154 69 46.3154 60.88H32.1754V98.4ZM32.1754 48.84H45.4754C53.8754 48.84 58.0754 44.22 58.0754 36.8C58.0754 29.38 53.8754 25.6 45.4754 25.6H32.1754V48.84ZM132.292 73.2C137.052 85.94 142.092 100.64 147.132 111H129.912C128.232 100.36 122.772 85.94 118.012 73.2L113.392 60.88H101.492V72.92C101.492 84.96 101.492 100.92 102.332 111H86.6518C87.4918 100.92 87.4918 84.96 87.4918 72.92V51.08C87.4918 39.04 87.4918 23.08 86.6518 13H115.352C134.112 13 144.892 21.82 144.892 36.94C144.892 48.56 138.592 56.4 127.252 59.48L132.292 73.2ZM101.492 48.84H116.752C126.272 48.84 130.332 45.34 130.332 37.22C130.332 29.1 126.272 25.6 116.752 25.6H101.492V48.84ZM149.274 111C152.634 97.56 154.314 88.18 156.834 73.34L161.174 47.86C163.414 34.56 165.234 24.48 165.934 13H198.554C199.534 24.48 201.354 34.56 203.594 47.86L207.934 73.34C210.454 88.18 211.854 97.56 215.214 111H199.394C198.554 98.12 197.014 88.18 194.494 73.34L193.654 68.72H170.694L169.854 73.34C167.334 88.18 165.514 98.12 164.674 111H149.274ZM172.654 56.68H191.694L186.094 24.76H178.254L172.654 56.68ZM231.133 13C231.973 25.88 233.793 35.96 236.733 50.66L246.533 99.24H249.333L259.133 50.66C262.073 35.96 263.893 25.88 264.733 13H280.553C277.193 26.44 275.513 35.96 272.573 50.66L267.953 73.62C265.573 85.52 261.933 100.92 261.793 111H233.513C233.373 100.92 229.733 85.52 227.353 73.62L222.873 50.66C219.933 35.82 218.253 26.44 214.893 13H231.133ZM289.816 111C290.656 100.92 290.656 84.96 290.656 72.92V51.08C290.656 39.04 290.656 23.08 289.816 13H334.056V26.44C325.796 25.6 314.876 25.6 304.656 25.6V47.44C314.176 47.44 324.256 47.3 331.816 46.6V60.88C324.256 60.18 314.176 60.04 304.656 60.04V98.4C314.876 98.4 325.796 98.4 334.056 97.56V111H289.816ZM348.625 51.08C348.625 39.04 348.625 23.08 347.785 13H374.525C392.445 13 403.085 21.54 403.085 35.68C403.085 45.2 398.325 52.62 390.485 56.4C399.865 65.78 405.325 76.56 405.325 87.06C405.325 101.9 394.405 111 375.925 111H347.785C348.625 100.92 348.625 84.96 348.625 72.92V51.08ZM362.625 98.4H377.325C385.725 98.4 390.765 93.5 390.765 85.8C390.765 77.68 385.165 69 376.765 60.88H362.625V98.4ZM362.625 48.84H375.925C384.325 48.84 388.525 44.22 388.525 36.8C388.525 29.38 384.325 25.6 375.925 25.6H362.625V48.84ZM462.741 73.2C467.501 85.94 472.541 100.64 477.581 111H460.361C458.681 100.36 453.221 85.94 448.461 73.2L443.841 60.88H431.941V72.92C431.941 84.96 431.941 100.92 432.781 111H417.101C417.941 100.92 417.941 84.96 417.941 72.92V51.08C417.941 39.04 417.941 23.08 417.101 13H445.801C464.561 13 475.341 21.82 475.341 36.94C475.341 48.56 469.041 56.4 457.701 59.48L462.741 73.2ZM431.941 48.84H447.201C456.721 48.84 460.781 45.34 460.781 37.22C460.781 29.1 456.721 25.6 447.201 25.6H431.941V48.84ZM479.724 111C483.084 97.56 484.764 88.18 487.284 73.34L491.624 47.86C493.864 34.56 495.684 24.48 496.384 13H529.004C529.984 24.48 531.804 34.56 534.044 47.86L538.384 73.34C540.904 88.18 542.304 97.56 545.664 111H529.844C529.004 98.12 527.464 88.18 524.944 73.34L524.104 68.72H501.144L500.304 73.34C497.784 88.18 495.964 98.12 495.124 111H479.724ZM503.104 56.68H522.144L516.544 24.76H508.704L503.104 56.68ZM555.187 111C556.027 100.92 556.027 84.96 556.027 72.92V51.08C556.027 39.04 556.027 23.08 555.187 13H564.567L598.587 42.26C598.587 31.9 598.447 20.7 597.747 13H613.427C612.587 23.08 612.587 39.04 612.587 51.08V72.92C612.587 84.96 612.587 100.92 613.427 111H597.747C598.587 100.92 598.587 84.96 598.587 72.92V59.62L570.027 34.98V72.92C570.027 84.96 570.027 100.92 570.867 111H555.187ZM629.445 51.08C629.445 39.04 629.445 23.08 628.605 13H652.965C673.685 13 684.045 28.54 684.045 59.76V64.24C684.045 95.46 673.685 111 652.965 111H628.605C629.445 100.92 629.445 84.96 629.445 72.92V51.08ZM643.445 98.4H652.965C664.025 98.4 669.485 88.04 669.485 67.04V56.96C669.485 35.96 664.025 25.6 652.965 25.6H643.445V98.4Z" fill="white"/>
<path d="M95.9745 141.273L90.5412 174H81.6563L87.0895 141.273H95.9745ZM137.952 141.273L132.519 174H125.104L116.155 156.805H115.963L113.087 174H104.202L109.635 141.273H117.178L125.999 158.403H126.255L129.067 141.273H137.952ZM149.495 148.432L150.71 141.273H179.154L177.94 148.432H168.096L163.877 174H155.12L159.339 148.432H149.495ZM186.515 174L191.948 141.273H215.535L214.32 148.432H199.619L198.724 154.057H212.211L210.997 161.216H197.509L196.615 166.841H211.252L210.038 174H186.515ZM223.958 174L229.391 141.273H238.276L234.058 166.841H247.289L246.075 174H223.958ZM259.116 174L264.549 141.273H273.434L269.216 166.841H282.447L281.233 174H259.116ZM308.592 141.273L303.159 174H294.274L299.708 141.273H308.592ZM341.717 152.075C341.674 151.511 341.557 151.015 341.365 150.589C341.174 150.152 340.902 149.785 340.55 149.487C340.199 149.178 339.762 148.949 339.24 148.799C338.729 148.64 338.127 148.56 337.434 148.56C335.943 148.56 334.585 148.917 333.359 149.63C332.134 150.344 331.106 151.372 330.275 152.714C329.455 154.057 328.89 155.676 328.581 157.572C328.262 159.49 328.235 161.131 328.501 162.494C328.768 163.858 329.343 164.902 330.227 165.626C331.122 166.351 332.331 166.713 333.855 166.713C335.218 166.713 336.396 166.516 337.386 166.122C338.377 165.728 339.171 165.168 339.767 164.444C340.364 163.719 340.737 162.867 340.886 161.887L342.42 162.047H334.941L335.964 155.719H350.474L349.739 160.257C349.249 163.24 348.194 165.792 346.575 167.912C344.966 170.021 342.963 171.64 340.566 172.77C338.169 173.888 335.538 174.447 332.672 174.447C329.498 174.447 326.818 173.771 324.634 172.418C322.45 171.065 320.89 169.137 319.952 166.633C319.025 164.13 318.844 161.152 319.409 157.7C319.856 154.994 320.666 152.597 321.838 150.509C323.02 148.421 324.464 146.658 326.168 145.22C327.873 143.771 329.753 142.679 331.809 141.944C333.865 141.198 335.996 140.825 338.201 140.825C340.13 140.825 341.882 141.102 343.459 141.656C345.036 142.2 346.383 142.977 347.502 143.989C348.62 144.991 349.457 146.179 350.011 147.553C350.575 148.927 350.804 150.435 350.698 152.075H341.717ZM361.031 174L366.464 141.273H390.051L388.836 148.432H374.134L373.24 154.057H386.727L385.512 161.216H372.025L371.13 166.841H385.768L384.553 174H361.031ZM432.224 141.273L426.791 174H419.376L410.427 156.805H410.235L407.359 174H398.474L403.907 141.273H411.45L420.271 158.403H420.526L423.339 141.273H432.224ZM474.353 153.545H465.468C465.532 152.789 465.49 152.107 465.34 151.5C465.191 150.893 464.936 150.371 464.573 149.934C464.211 149.487 463.737 149.146 463.151 148.911C462.565 148.677 461.867 148.56 461.058 148.56C459.502 148.56 458.112 148.949 456.887 149.726C455.662 150.493 454.644 151.596 453.835 153.034C453.025 154.462 452.45 156.166 452.109 158.148C451.811 160.065 451.8 161.658 452.077 162.926C452.365 164.194 452.924 165.142 453.755 165.77C454.596 166.399 455.688 166.713 457.031 166.713C457.926 166.713 458.746 166.607 459.492 166.393C460.248 166.18 460.919 165.877 461.505 165.483C462.102 165.078 462.608 164.598 463.023 164.044C463.449 163.48 463.774 162.857 463.998 162.175H472.947C472.606 163.56 471.999 164.977 471.125 166.425C470.252 167.864 469.122 169.19 467.737 170.404C466.352 171.608 464.723 172.583 462.848 173.329C460.973 174.075 458.863 174.447 456.519 174.447C453.451 174.447 450.804 173.776 448.577 172.434C446.361 171.092 444.753 169.131 443.751 166.553C442.761 163.975 442.563 160.832 443.16 157.125C443.757 153.545 444.934 150.547 446.692 148.128C448.449 145.71 450.585 143.888 453.1 142.663C455.614 141.438 458.288 140.825 461.122 140.825C463.263 140.825 465.181 141.108 466.875 141.672C468.579 142.237 470.012 143.062 471.173 144.149C472.345 145.225 473.208 146.551 473.762 148.128C474.316 149.705 474.513 151.511 474.353 153.545ZM484.478 174L489.912 141.273H513.498L512.284 148.432H497.582L496.687 154.057H510.174L508.96 161.216H495.473L494.578 166.841H509.216L508.001 174H484.478Z" fill="#16314C"/>
</svg>
