<svg width="700" height="191" viewBox="0 0 700 191" fill="none" xmlns="http://www.w3.org/2000/svg">
<rect x="15" y="123" width="675" height="54" rx="10" fill="#BBDCEF"/>
<path d="M18.1754 51.08C18.1754 39.04 18.1754 23.08 17.3354 13H44.0754C61.9954 13 72.6354 21.54 72.6354 35.68C72.6354 45.2 67.8754 52.62 60.0354 56.4C69.4154 65.78 74.8754 76.56 74.8754 87.06C74.8754 101.9 63.9554 111 45.4754 111H17.3354C18.1754 100.92 18.1754 84.96 18.1754 72.92V51.08ZM32.1754 98.4H46.8754C55.2754 98.4 60.3154 93.5 60.3154 85.8C60.3154 77.68 54.7154 69 46.3154 60.88H32.1754V98.4ZM32.1754 48.84H45.4754C53.8754 48.84 58.0754 44.22 58.0754 36.8C58.0754 29.38 53.8754 25.6 45.4754 25.6H32.1754V48.84ZM132.292 73.2C137.052 85.94 142.092 100.64 147.132 111H129.912C128.232 100.36 122.772 85.94 118.012 73.2L113.392 60.88H101.492V72.92C101.492 84.96 101.492 100.92 102.332 111H86.6518C87.4918 100.92 87.4918 84.96 87.4918 72.92V51.08C87.4918 39.04 87.4918 23.08 86.6518 13H115.352C134.112 13 144.892 21.82 144.892 36.94C144.892 48.56 138.592 56.4 127.252 59.48L132.292 73.2ZM101.492 48.84H116.752C126.272 48.84 130.332 45.34 130.332 37.22C130.332 29.1 126.272 25.6 116.752 25.6H101.492V48.84ZM149.274 111C152.634 97.56 154.314 88.18 156.834 73.34L161.174 47.86C163.414 34.56 165.234 24.48 165.934 13H198.554C199.534 24.48 201.354 34.56 203.594 47.86L207.934 73.34C210.454 88.18 211.854 97.56 215.214 111H199.394C198.554 98.12 197.014 88.18 194.494 73.34L193.654 68.72H170.694L169.854 73.34C167.334 88.18 165.514 98.12 164.674 111H149.274ZM172.654 56.68H191.694L186.094 24.76H178.254L172.654 56.68ZM231.133 13C231.973 25.88 233.793 35.96 236.733 50.66L246.533 99.24H249.333L259.133 50.66C262.073 35.96 263.893 25.88 264.733 13H280.553C277.193 26.44 275.513 35.96 272.573 50.66L267.953 73.62C265.573 85.52 261.933 100.92 261.793 111H233.513C233.373 100.92 229.733 85.52 227.353 73.62L222.873 50.66C219.933 35.82 218.253 26.44 214.893 13H231.133ZM289.816 111C290.656 100.92 290.656 84.96 290.656 72.92V51.08C290.656 39.04 290.656 23.08 289.816 13H334.056V26.44C325.796 25.6 314.876 25.6 304.656 25.6V47.44C314.176 47.44 324.256 47.3 331.816 46.6V60.88C324.256 60.18 314.176 60.04 304.656 60.04V98.4C314.876 98.4 325.796 98.4 334.056 97.56V111H289.816ZM348.625 51.08C348.625 39.04 348.625 23.08 347.785 13H374.525C392.445 13 403.085 21.54 403.085 35.68C403.085 45.2 398.325 52.62 390.485 56.4C399.865 65.78 405.325 76.56 405.325 87.06C405.325 101.9 394.405 111 375.925 111H347.785C348.625 100.92 348.625 84.96 348.625 72.92V51.08ZM362.625 98.4H377.325C385.725 98.4 390.765 93.5 390.765 85.8C390.765 77.68 385.165 69 376.765 60.88H362.625V98.4ZM362.625 48.84H375.925C384.325 48.84 388.525 44.22 388.525 36.8C388.525 29.38 384.325 25.6 375.925 25.6H362.625V48.84ZM462.741 73.2C467.501 85.94 472.541 100.64 477.581 111H460.361C458.681 100.36 453.221 85.94 448.461 73.2L443.841 60.88H431.941V72.92C431.941 84.96 431.941 100.92 432.781 111H417.101C417.941 100.92 417.941 84.96 417.941 72.92V51.08C417.941 39.04 417.941 23.08 417.101 13H445.801C464.561 13 475.341 21.82 475.341 36.94C475.341 48.56 469.041 56.4 457.701 59.48L462.741 73.2ZM431.941 48.84H447.201C456.721 48.84 460.781 45.34 460.781 37.22C460.781 29.1 456.721 25.6 447.201 25.6H431.941V48.84ZM479.724 111C483.084 97.56 484.764 88.18 487.284 73.34L491.624 47.86C493.864 34.56 495.684 24.48 496.384 13H529.004C529.984 24.48 531.804 34.56 534.044 47.86L538.384 73.34C540.904 88.18 542.304 97.56 545.664 111H529.844C529.004 98.12 527.464 88.18 524.944 73.34L524.104 68.72H501.144L500.304 73.34C497.784 88.18 495.964 98.12 495.124 111H479.724ZM503.104 56.68H522.144L516.544 24.76H508.704L503.104 56.68ZM555.187 111C556.027 100.92 556.027 84.96 556.027 72.92V51.08C556.027 39.04 556.027 23.08 555.187 13H564.567L598.587 42.26C598.587 31.9 598.447 20.7 597.747 13H613.427C612.587 23.08 612.587 39.04 612.587 51.08V72.92C612.587 84.96 612.587 100.92 613.427 111H597.747C598.587 100.92 598.587 84.96 598.587 72.92V59.62L570.027 34.98V72.92C570.027 84.96 570.027 100.92 570.867 111H555.187ZM629.445 51.08C629.445 39.04 629.445 23.08 628.605 13H652.965C673.685 13 684.045 28.54 684.045 59.76V64.24C684.045 95.46 673.685 111 652.965 111H628.605C629.445 100.92 629.445 84.96 629.445 72.92V51.08ZM643.445 98.4H652.965C664.025 98.4 669.485 88.04 669.485 67.04V56.96C669.485 35.96 664.025 25.6 652.965 25.6H643.445V98.4Z" fill="white"/>
<path d="M54.428 163H46.7576L59.7462 136.818H69.4621L73.7576 163H66.0871L63.5303 144.028H63.3258L54.428 163ZM54.7349 152.67H69.1553L68.2349 157.989H53.8144L54.7349 152.67ZM103.68 136.818H110.788L108.001 153.591C107.677 155.585 106.919 157.311 105.726 158.768C104.541 160.217 103.032 161.338 101.2 162.131C99.3677 162.915 97.3307 163.307 95.0893 163.307C92.8307 163.307 90.9216 162.915 89.362 162.131C87.8023 161.338 86.6688 160.217 85.9614 158.768C85.2625 157.311 85.075 155.585 85.3989 153.591L88.1858 136.818H95.2938L92.6091 152.977C92.4813 153.787 92.5452 154.507 92.8009 155.138C93.0566 155.768 93.4699 156.267 94.041 156.634C94.612 156.991 95.3023 157.17 96.112 157.17C96.9302 157.17 97.6844 156.991 98.3748 156.634C99.0736 156.267 99.6532 155.768 100.113 155.138C100.574 154.507 100.868 153.787 100.996 152.977L103.68 136.818ZM127.607 163H117.38L121.726 136.818H131.544C134.238 136.818 136.488 137.359 138.294 138.442C140.101 139.524 141.384 141.071 142.143 143.082C142.901 145.094 143.05 147.489 142.59 150.267C142.147 152.943 141.248 155.232 139.893 157.132C138.546 159.033 136.824 160.486 134.728 161.491C132.64 162.497 130.266 163 127.607 163ZM125.485 156.966H128.067C129.363 156.966 130.518 156.74 131.532 156.288C132.554 155.828 133.407 155.061 134.089 153.987C134.779 152.905 135.277 151.426 135.584 149.551C135.874 147.778 135.866 146.411 135.559 145.447C135.252 144.476 134.668 143.803 133.807 143.428C132.946 143.044 131.834 142.852 130.471 142.852H127.837L125.485 156.966ZM162.797 136.818L158.45 163H151.342L155.689 136.818H162.797ZM169.379 163L173.725 136.818H192.595L191.623 142.545H179.862L179.146 147.045H189.935L188.964 152.773H178.174L177.458 157.273H189.168L188.197 163H169.379ZM226.333 136.818L221.987 163H216.055L208.896 149.244H208.742L206.441 163H199.333L203.68 136.818H209.714L216.771 150.523H216.975L219.225 136.818H226.333ZM260.037 146.636H252.929C252.98 146.031 252.946 145.486 252.826 145C252.707 144.514 252.503 144.097 252.213 143.747C251.923 143.389 251.544 143.116 251.075 142.929C250.606 142.741 250.048 142.648 249.4 142.648C248.156 142.648 247.044 142.959 246.064 143.581C245.084 144.195 244.27 145.077 243.622 146.227C242.974 147.369 242.514 148.733 242.241 150.318C242.003 151.852 241.994 153.126 242.216 154.141C242.446 155.155 242.893 155.913 243.558 156.416C244.231 156.919 245.105 157.17 246.179 157.17C246.895 157.17 247.551 157.085 248.147 156.915C248.753 156.744 249.289 156.501 249.758 156.186C250.235 155.862 250.64 155.479 250.973 155.036C251.314 154.584 251.574 154.085 251.753 153.54H258.912C258.639 154.648 258.153 155.781 257.454 156.94C256.755 158.091 255.852 159.152 254.744 160.124C253.636 161.087 252.332 161.866 250.832 162.463C249.332 163.06 247.645 163.358 245.77 163.358C243.315 163.358 241.197 162.821 239.416 161.747C237.643 160.673 236.356 159.105 235.555 157.043C234.762 154.98 234.605 152.466 235.082 149.5C235.559 146.636 236.501 144.237 237.907 142.303C239.314 140.368 241.022 138.911 243.034 137.93C245.045 136.95 247.184 136.46 249.451 136.46C251.164 136.46 252.699 136.686 254.054 137.138C255.417 137.589 256.564 138.25 257.493 139.119C258.43 139.98 259.12 141.041 259.564 142.303C260.007 143.564 260.164 145.009 260.037 146.636ZM268.137 163L272.483 136.818H291.353L290.381 142.545H278.62L277.904 147.045H288.694L287.722 152.773H276.932L276.216 157.273H287.927L286.955 163H268.137ZM324.278 136.818L319.931 163H312.823L317.17 136.818H324.278ZM357.86 136.818L353.513 163H347.581L340.422 149.244H340.269L337.968 163H330.86L335.206 136.818H341.24L348.297 150.523H348.502L350.752 136.818H357.86ZM367.094 142.545L368.066 136.818H390.822L389.85 142.545H381.975L378.6 163H371.594L374.969 142.545H367.094ZM396.71 163L401.057 136.818H419.926L418.955 142.545H407.193L406.477 147.045H417.267L416.295 152.773H405.506L404.79 157.273H416.5L415.528 163H396.71ZM426.665 163L431.011 136.818H438.119L434.744 157.273H445.329L444.358 163H426.665ZM454.791 163L459.138 136.818H466.246L462.871 157.273H473.456L472.484 163H454.791ZM494.372 136.818L490.025 163H482.918L487.264 136.818H494.372ZM520.872 145.46C520.838 145.009 520.744 144.612 520.59 144.271C520.437 143.922 520.22 143.628 519.938 143.389C519.657 143.142 519.308 142.959 518.89 142.839C518.481 142.712 518 142.648 517.446 142.648C516.252 142.648 515.166 142.933 514.186 143.504C513.206 144.075 512.383 144.898 511.718 145.972C511.062 147.045 510.61 148.341 510.363 149.858C510.107 151.392 510.086 152.705 510.299 153.795C510.512 154.886 510.973 155.722 511.68 156.301C512.396 156.881 513.363 157.17 514.582 157.17C515.673 157.17 516.615 157.013 517.407 156.697C518.2 156.382 518.835 155.935 519.312 155.355C519.789 154.776 520.088 154.094 520.207 153.31L521.434 153.438H515.451L516.269 148.375H527.877L527.289 152.006C526.897 154.392 526.054 156.433 524.758 158.129C523.471 159.817 521.869 161.112 519.951 162.016C518.034 162.911 515.929 163.358 513.636 163.358C511.096 163.358 508.953 162.817 507.206 161.734C505.458 160.652 504.21 159.109 503.46 157.107C502.718 155.104 502.573 152.722 503.025 149.96C503.383 147.795 504.031 145.878 504.968 144.207C505.914 142.537 507.069 141.126 508.433 139.976C509.796 138.817 511.301 137.943 512.946 137.355C514.59 136.759 516.295 136.46 518.059 136.46C519.602 136.46 521.004 136.682 522.265 137.125C523.527 137.56 524.605 138.182 525.5 138.991C526.394 139.793 527.063 140.743 527.507 141.842C527.958 142.942 528.142 144.148 528.056 145.46H520.872ZM536.323 163L540.669 136.818H559.539L558.567 142.545H546.806L546.09 147.045H556.88L555.908 152.773H545.118L544.402 157.273H556.112L555.141 163H536.323ZM593.277 136.818L588.931 163H582.999L575.84 149.244H575.686L573.385 163H566.277L570.624 136.818H576.658L583.715 150.523H583.919L586.169 136.818H593.277ZM626.981 146.636H619.873C619.924 146.031 619.89 145.486 619.771 145C619.651 144.514 619.447 144.097 619.157 143.747C618.867 143.389 618.488 143.116 618.019 142.929C617.55 142.741 616.992 142.648 616.344 142.648C615.1 142.648 613.988 142.959 613.008 143.581C612.028 144.195 611.214 145.077 610.566 146.227C609.918 147.369 609.458 148.733 609.185 150.318C608.947 151.852 608.938 153.126 609.16 154.141C609.39 155.155 609.837 155.913 610.502 156.416C611.175 156.919 612.049 157.17 613.123 157.17C613.839 157.17 614.495 157.085 615.092 156.915C615.697 156.744 616.234 156.501 616.702 156.186C617.18 155.862 617.584 155.479 617.917 155.036C618.258 154.584 618.518 154.085 618.697 153.54H625.856C625.583 154.648 625.097 155.781 624.398 156.94C623.699 158.091 622.796 159.152 621.688 160.124C620.58 161.087 619.276 161.866 617.776 162.463C616.276 163.06 614.589 163.358 612.714 163.358C610.259 163.358 608.141 162.821 606.36 161.747C604.587 160.673 603.3 159.105 602.499 157.043C601.707 154.98 601.549 152.466 602.026 149.5C602.503 146.636 603.445 144.237 604.851 142.303C606.258 140.368 607.967 138.911 609.978 137.93C611.989 136.95 614.128 136.46 616.396 136.46C618.109 136.46 619.643 136.686 620.998 137.138C622.361 137.589 623.508 138.25 624.437 139.119C625.374 139.98 626.065 141.041 626.508 142.303C626.951 143.564 627.109 145.009 626.981 146.636ZM635.081 163L639.427 136.818H658.297L657.325 142.545H645.564L644.848 147.045H655.638L654.666 152.773H643.876L643.16 157.273H654.871L653.899 163H635.081Z" fill="#16314C"/>
</svg>
