<svg width="700" height="185" viewBox="0 0 700 185" fill="none" xmlns="http://www.w3.org/2000/svg">
<rect x="117" y="131" width="467" height="54" rx="10" fill="#BBDCEF"/>
<path d="M18.1754 51.08C18.1754 39.04 18.1754 23.08 17.3354 13H44.0754C61.9954 13 72.6354 21.54 72.6354 35.68C72.6354 45.2 67.8754 52.62 60.0354 56.4C69.4154 65.78 74.8754 76.56 74.8754 87.06C74.8754 101.9 63.9554 111 45.4754 111H17.3354C18.1754 100.92 18.1754 84.96 18.1754 72.92V51.08ZM32.1754 98.4H46.8754C55.2754 98.4 60.3154 93.5 60.3154 85.8C60.3154 77.68 54.7154 69 46.3154 60.88H32.1754V98.4ZM32.1754 48.84H45.4754C53.8754 48.84 58.0754 44.22 58.0754 36.8C58.0754 29.38 53.8754 25.6 45.4754 25.6H32.1754V48.84ZM132.292 73.2C137.052 85.94 142.092 100.64 147.132 111H129.912C128.232 100.36 122.772 85.94 118.012 73.2L113.392 60.88H101.492V72.92C101.492 84.96 101.492 100.92 102.332 111H86.6518C87.4918 100.92 87.4918 84.96 87.4918 72.92V51.08C87.4918 39.04 87.4918 23.08 86.6518 13H115.352C134.112 13 144.892 21.82 144.892 36.94C144.892 48.56 138.592 56.4 127.252 59.48L132.292 73.2ZM101.492 48.84H116.752C126.272 48.84 130.332 45.34 130.332 37.22C130.332 29.1 126.272 25.6 116.752 25.6H101.492V48.84ZM149.274 111C152.634 97.56 154.314 88.18 156.834 73.34L161.174 47.86C163.414 34.56 165.234 24.48 165.934 13H198.554C199.534 24.48 201.354 34.56 203.594 47.86L207.934 73.34C210.454 88.18 211.854 97.56 215.214 111H199.394C198.554 98.12 197.014 88.18 194.494 73.34L193.654 68.72H170.694L169.854 73.34C167.334 88.18 165.514 98.12 164.674 111H149.274ZM172.654 56.68H191.694L186.094 24.76H178.254L172.654 56.68ZM231.133 13C231.973 25.88 233.793 35.96 236.733 50.66L246.533 99.24H249.333L259.133 50.66C262.073 35.96 263.893 25.88 264.733 13H280.553C277.193 26.44 275.513 35.96 272.573 50.66L267.953 73.62C265.573 85.52 261.933 100.92 261.793 111H233.513C233.373 100.92 229.733 85.52 227.353 73.62L222.873 50.66C219.933 35.82 218.253 26.44 214.893 13H231.133ZM289.816 111C290.656 100.92 290.656 84.96 290.656 72.92V51.08C290.656 39.04 290.656 23.08 289.816 13H334.056V26.44C325.796 25.6 314.876 25.6 304.656 25.6V47.44C314.176 47.44 324.256 47.3 331.816 46.6V60.88C324.256 60.18 314.176 60.04 304.656 60.04V98.4C314.876 98.4 325.796 98.4 334.056 97.56V111H289.816ZM348.625 51.08C348.625 39.04 348.625 23.08 347.785 13H374.525C392.445 13 403.085 21.54 403.085 35.68C403.085 45.2 398.325 52.62 390.485 56.4C399.865 65.78 405.325 76.56 405.325 87.06C405.325 101.9 394.405 111 375.925 111H347.785C348.625 100.92 348.625 84.96 348.625 72.92V51.08ZM362.625 98.4H377.325C385.725 98.4 390.765 93.5 390.765 85.8C390.765 77.68 385.165 69 376.765 60.88H362.625V98.4ZM362.625 48.84H375.925C384.325 48.84 388.525 44.22 388.525 36.8C388.525 29.38 384.325 25.6 375.925 25.6H362.625V48.84ZM462.741 73.2C467.501 85.94 472.541 100.64 477.581 111H460.361C458.681 100.36 453.221 85.94 448.461 73.2L443.841 60.88H431.941V72.92C431.941 84.96 431.941 100.92 432.781 111H417.101C417.941 100.92 417.941 84.96 417.941 72.92V51.08C417.941 39.04 417.941 23.08 417.101 13H445.801C464.561 13 475.341 21.82 475.341 36.94C475.341 48.56 469.041 56.4 457.701 59.48L462.741 73.2ZM431.941 48.84H447.201C456.721 48.84 460.781 45.34 460.781 37.22C460.781 29.1 456.721 25.6 447.201 25.6H431.941V48.84ZM479.724 111C483.084 97.56 484.764 88.18 487.284 73.34L491.624 47.86C493.864 34.56 495.684 24.48 496.384 13H529.004C529.984 24.48 531.804 34.56 534.044 47.86L538.384 73.34C540.904 88.18 542.304 97.56 545.664 111H529.844C529.004 98.12 527.464 88.18 524.944 73.34L524.104 68.72H501.144L500.304 73.34C497.784 88.18 495.964 98.12 495.124 111H479.724ZM503.104 56.68H522.144L516.544 24.76H508.704L503.104 56.68ZM555.187 111C556.027 100.92 556.027 84.96 556.027 72.92V51.08C556.027 39.04 556.027 23.08 555.187 13H564.567L598.587 42.26C598.587 31.9 598.447 20.7 597.747 13H613.427C612.587 23.08 612.587 39.04 612.587 51.08V72.92C612.587 84.96 612.587 100.92 613.427 111H597.747C598.587 100.92 598.587 84.96 598.587 72.92V59.62L570.027 34.98V72.92C570.027 84.96 570.027 100.92 570.867 111H555.187ZM629.445 51.08C629.445 39.04 629.445 23.08 628.605 13H652.965C673.685 13 684.045 28.54 684.045 59.76V64.24C684.045 95.46 673.685 111 652.965 111H628.605C629.445 100.92 629.445 84.96 629.445 72.92V51.08ZM643.445 98.4H652.965C664.025 98.4 669.485 88.04 669.485 67.04V56.96C669.485 35.96 664.025 25.6 652.965 25.6H643.445V98.4Z" fill="white"/>
<path d="M148.974 141.273L143.541 174H134.656L140.09 141.273H148.974ZM190.952 141.273L185.519 174H178.104L169.155 156.805H168.963L166.087 174H157.202L162.635 141.273H170.178L178.999 158.403H179.255L182.067 141.273H190.952ZM202.495 148.432L203.71 141.273H232.154L230.94 148.432H221.096L216.877 174H208.12L212.339 148.432H202.495ZM239.515 174L244.948 141.273H268.535L267.32 148.432H252.619L251.724 154.057H265.211L263.997 161.216H250.509L249.615 166.841H264.252L263.038 174H239.515ZM276.958 174L282.391 141.273H291.276L287.058 166.841H300.289L299.075 174H276.958ZM312.116 174L317.549 141.273H326.434L322.216 166.841H335.447L334.233 174H312.116ZM361.592 141.273L356.159 174H347.274L352.708 141.273H361.592ZM394.717 152.075C394.674 151.511 394.557 151.015 394.365 150.589C394.174 150.152 393.902 149.785 393.55 149.487C393.199 149.178 392.762 148.949 392.24 148.799C391.729 148.64 391.127 148.56 390.434 148.56C388.943 148.56 387.585 148.917 386.359 149.63C385.134 150.344 384.106 151.372 383.275 152.714C382.455 154.057 381.89 155.676 381.581 157.572C381.262 159.49 381.235 161.131 381.501 162.494C381.768 163.858 382.343 164.902 383.227 165.626C384.122 166.351 385.331 166.713 386.855 166.713C388.218 166.713 389.396 166.516 390.386 166.122C391.377 165.728 392.171 165.168 392.767 164.444C393.364 163.719 393.737 162.867 393.886 161.887L395.42 162.047H387.941L388.964 155.719H403.474L402.739 160.257C402.249 163.24 401.194 165.792 399.575 167.912C397.966 170.021 395.963 171.64 393.566 172.77C391.169 173.888 388.538 174.447 385.672 174.447C382.498 174.447 379.818 173.771 377.634 172.418C375.45 171.065 373.89 169.137 372.952 166.633C372.025 164.13 371.844 161.152 372.409 157.7C372.856 154.994 373.666 152.597 374.838 150.509C376.02 148.421 377.464 146.658 379.168 145.22C380.873 143.771 382.753 142.679 384.809 141.944C386.865 141.198 388.996 140.825 391.201 140.825C393.13 140.825 394.882 141.102 396.459 141.656C398.036 142.2 399.383 142.977 400.502 143.989C401.62 144.991 402.457 146.179 403.011 147.553C403.575 148.927 403.804 150.435 403.698 152.075H394.717ZM414.031 174L419.464 141.273H443.051L441.836 148.432H427.134L426.24 154.057H439.727L438.512 161.216H425.025L424.13 166.841H438.768L437.553 174H414.031ZM485.224 141.273L479.791 174H472.376L463.427 156.805H463.235L460.359 174H451.474L456.907 141.273H464.45L473.271 158.403H473.526L476.339 141.273H485.224ZM527.353 153.545H518.468C518.532 152.789 518.49 152.107 518.34 151.5C518.191 150.893 517.936 150.371 517.573 149.934C517.211 149.487 516.737 149.146 516.151 148.911C515.565 148.677 514.867 148.56 514.058 148.56C512.502 148.56 511.112 148.949 509.887 149.726C508.662 150.493 507.644 151.596 506.835 153.034C506.025 154.462 505.45 156.166 505.109 158.148C504.811 160.065 504.8 161.658 505.077 162.926C505.365 164.194 505.924 165.142 506.755 165.77C507.596 166.399 508.688 166.713 510.031 166.713C510.926 166.713 511.746 166.607 512.492 166.393C513.248 166.18 513.919 165.877 514.505 165.483C515.102 165.078 515.608 164.598 516.023 164.044C516.449 163.48 516.774 162.857 516.998 162.175H525.947C525.606 163.56 524.999 164.977 524.125 166.425C523.252 167.864 522.122 169.19 520.737 170.404C519.352 171.608 517.723 172.583 515.848 173.329C513.973 174.075 511.863 174.447 509.519 174.447C506.451 174.447 503.804 173.776 501.577 172.434C499.361 171.092 497.753 169.131 496.751 166.553C495.761 163.975 495.563 160.832 496.16 157.125C496.757 153.545 497.934 150.547 499.692 148.128C501.449 145.71 503.585 143.888 506.1 142.663C508.614 141.438 511.288 140.825 514.122 140.825C516.263 140.825 518.181 141.108 519.875 141.672C521.579 142.237 523.012 143.062 524.173 144.149C525.345 145.225 526.208 146.551 526.762 148.128C527.316 149.705 527.513 151.511 527.353 153.545ZM537.478 174L542.912 141.273H566.498L565.284 148.432H550.582L549.687 154.057H563.174L561.96 161.216H548.473L547.578 166.841H562.216L561.001 174H537.478Z" fill="#16314C"/>
</svg>
